<svg width="24" height="24" viewBox="0 0 24 24" fill="none" xmlns="http://www.w3.org/2000/svg">
<path d="M5.75988 19.8248C6.9173 17.5547 9.27709 16 12 16C14.7019 16 17.0462 17.5308 18.2131 19.7723M14.3333 10.4444C14.3333 11.7945 13.2389 12.8889 11.8889 12.8889C10.5389 12.8889 9.44444 11.7945 9.44444 10.4444C9.44444 9.09442 10.5389 8 11.8889 8C13.2389 8 14.3333 9.09442 14.3333 10.4444ZM12 22C6.47715 22 2 17.5228 2 12C2 6.47715 6.47715 2 12 2C17.5228 2 22 6.47715 22 12C22 17.5228 17.5228 22 12 22Z" stroke="black" stroke-width="2" stroke-linecap="round" stroke-linejoin="round"/>
</svg>
