<svg width="24" height="24" viewBox="0 0 24 24" fill="none" xmlns="http://www.w3.org/2000/svg">
<path d="M10 22V19M10 5V2M14 22V19M14 5V2M2 14H5M19 10L22 10M19 14H22M2 10L5 10M7 19H17C18.1046 19 19 18.1046 19 17V7C19 5.89543 18.1046 5 17 5H7C5.89543 5 5 5.89543 5 7V17C5 18.1046 5.89543 19 7 19ZM9.5 15H14.5C14.7761 15 15 14.7761 15 14.5V9.5C15 9.22386 14.7761 9 14.5 9H9.5C9.22386 9 9 9.22386 9 9.5V14.5C9 14.7761 9.22386 15 9.5 15Z" stroke="black" stroke-width="2" stroke-linecap="round" stroke-linejoin="round"/>
</svg>
