<svg width="24" height="24" viewBox="0 0 24 24" fill="none" xmlns="http://www.w3.org/2000/svg">
<path d="M22 7.55556V4.22222C22 2.99492 21.0051 2 19.7778 2H16.4444M22 16.4444V19.7778C22 21.0051 21.0051 22 19.7778 22H16.4444M2 16.4444V19.7778C2 21.0051 2.99492 22 4.22222 22H7.55556M2 7.55556V4.22222C2 2.99492 2.99492 2 4.22222 2H7.55556" stroke="black" stroke-width="2" stroke-linecap="round" stroke-linejoin="round"/>
<path d="M8 9L8 8" stroke="black" stroke-width="2" stroke-linecap="round" stroke-linejoin="round"/>
<path d="M12.5 8L12.5 11.5C12.5 12.6046 11.6046 13.5 10.5 13.5L10 13.5" stroke="black" stroke-width="2" stroke-linecap="round" stroke-linejoin="round"/>
<path d="M16 9L16 8" stroke="black" stroke-width="2" stroke-linecap="round" stroke-linejoin="round"/>
<path d="M15.5 16.5L15 17.0961C14.3696 17.5621 13.4037 18 12 18C10.5963 18 9.63041 17.5621 9 17.0961L8.5 16.5" stroke="black" stroke-width="2" stroke-linecap="round" stroke-linejoin="round"/>
</svg>
