<svg width="24" height="24" viewBox="0 0 24 24" fill="none" xmlns="http://www.w3.org/2000/svg">
<path d="M6.01735 9.75508C6.25548 12.4258 6.25712 15.1124 6.02225 17.7834L6.00318 18.0003C6.00139 18.0207 6.01153 18.0403 6.02922 18.0507C9.71896 20.203 14.2815 20.203 17.9713 18.0507C17.989 18.0403 17.9991 18.0207 17.9973 18.0003L17.9782 17.7834C17.7434 15.1124 17.745 12.4258 17.9831 9.75508M6.01735 9.75508C6.00749 9.64445 6.07933 9.543 6.18696 9.51556L11.5062 8.15967C11.8304 8.07704 12.1701 8.07704 12.4942 8.15967L17.8135 9.51556C17.9212 9.543 17.993 9.64445 17.9831 9.75508M6.01735 9.75508C6.01735 9.75508 5.50026 4.53376 3.25965 5.03375C1.01905 5.53374 1.50026 15.0337 6.00026 18.0337M17.9831 9.75508C17.9831 9.75508 18.4555 4.53376 20.6961 5.03375C22.9367 5.53374 22.4555 15.0337 17.9555 18.0337M14.0002 12.0337H10.0002M14.0002 16.0337H10.0002" stroke="black" stroke-width="2" stroke-linecap="round" stroke-linejoin="round"/>
</svg>
