<svg width="24" height="24" viewBox="0 0 24 24" fill="none" xmlns="http://www.w3.org/2000/svg">
<path d="M9 18C9 19.6569 7.65685 21 6 21C4.34315 21 3 19.6569 3 18C3 16.3431 4.34315 15 6 15C7.65685 15 9 16.3431 9 18ZM9 18V5.83458C9 5.35129 9.34563 4.93716 9.82112 4.85071L19.4106 3.10717C19.7175 3.05137 20 3.28715 20 3.59911V16M20 16C20 17.6569 18.6569 19 17 19C15.3431 19 14 17.6569 14 16C14 14.3431 15.3431 13 17 13C18.6569 13 20 14.3431 20 16Z" stroke="black" stroke-width="2" stroke-linecap="round" stroke-linejoin="round"/>
</svg>
