<svg width="24" height="24" viewBox="0 0 24 24" fill="none" xmlns="http://www.w3.org/2000/svg">
<path d="M21.9756 17.1497C21.8884 16.8566 21.4712 16.6499 21.4712 16.6499C21.4317 16.6288 21.3965 16.6099 21.3674 16.5951C20.672 16.2535 20.0555 15.8423 19.5365 15.3762C19.1193 15.0008 18.7623 14.5875 18.4758 14.1489C18.125 13.6132 17.961 13.1662 17.8904 12.9237C17.851 12.7655 17.8572 12.7022 17.8904 12.62C17.9174 12.5504 17.9984 12.485 18.0357 12.4534C18.2703 12.2847 18.6481 12.0358 18.8806 11.884C19.0819 11.7512 19.2542 11.6373 19.3559 11.5656C19.6818 11.3336 19.906 11.0974 20.0368 10.8423C20.207 10.5133 20.2278 10.1506 20.0949 9.79418C19.9164 9.31337 19.4743 9.02657 18.9117 9.02657C18.7872 9.02657 18.6585 9.04133 18.5298 9.06875C18.208 9.14045 17.9029 9.25643 17.6475 9.35765C17.6289 9.36609 17.6081 9.35133 17.6102 9.33024C17.6372 8.68705 17.6683 7.82244 17.5977 7.00211C17.5355 6.25981 17.3839 5.63349 17.139 5.0873C16.892 4.53901 16.5702 4.13412 16.319 3.841C16.0803 3.56263 15.6589 3.15141 15.0237 2.78237C14.1311 2.2636 13.114 2 12.0013 2C10.8908 2 9.87572 2.2636 8.98105 2.78237C8.30849 3.1725 7.87879 3.61324 7.68367 3.841C7.4325 4.13412 7.11075 4.53901 6.86372 5.0873C6.6167 5.63349 6.46724 6.2577 6.40497 7.00211C6.33439 7.82666 6.36345 8.62168 6.39252 9.33024C6.39252 9.35133 6.37383 9.36609 6.35308 9.35765C6.09775 9.25643 5.79261 9.14045 5.47086 9.06875C5.34423 9.04133 5.21553 9.02657 5.08891 9.02657C4.52844 9.02657 4.08629 9.31337 3.9057 9.79418C3.77285 10.1506 3.7936 10.5133 3.96382 10.8423C4.09667 11.0974 4.31878 11.3336 4.64469 11.5656C4.74432 11.6373 4.91869 11.7512 5.12005 11.884C5.34631 12.0337 5.71373 12.2763 5.95037 12.4429C5.97943 12.4639 6.07907 12.5399 6.11021 12.62C6.14342 12.7043 6.14965 12.7676 6.10605 12.9363C6.0334 13.1809 5.86941 13.6238 5.52483 14.1489C5.23837 14.5896 4.88133 15.0008 4.46409 15.3762C3.94514 15.8423 3.32862 16.2535 2.63323 16.5951C2.60002 16.612 2.56057 16.631 2.51906 16.6563C2.51906 16.6563 2.1039 16.8714 2.02502 17.1497C1.90877 17.5609 2.21807 17.9469 2.53151 18.1535C3.04631 18.4909 3.67321 18.6723 4.03647 18.7714C4.13819 18.7988 4.22952 18.8241 4.31256 18.8494C4.36445 18.8663 4.49523 18.9169 4.55127 18.9907C4.62185 19.0835 4.63016 19.1974 4.65506 19.326C4.69451 19.5432 4.78377 19.811 5.04739 19.9966C5.33801 20.1991 5.70542 20.2138 6.17248 20.2328C6.6603 20.2518 7.26643 20.275 7.96183 20.5091C8.28358 20.6166 8.57627 20.8001 8.91255 21.011C9.61832 21.4517 10.4964 22 11.9951 22C13.4959 22 14.3802 21.4496 15.0901 21.0067C15.4264 20.798 15.715 20.6166 16.0305 20.5112C16.7259 20.2771 17.332 20.2539 17.8198 20.2349C18.2869 20.2159 18.6543 20.2033 18.9449 19.9987C19.2272 19.8005 19.3082 19.5053 19.3456 19.2838C19.3663 19.1742 19.3788 19.0751 19.441 18.9949C19.495 18.9253 19.6154 18.8768 19.6715 18.8579C19.7566 18.8305 19.8521 18.8051 19.9579 18.7756C20.3212 18.6765 20.7779 18.5605 21.3321 18.2421C22.0005 17.8562 22.0462 17.3838 21.9756 17.1497Z" stroke="black" stroke-width="2" stroke-linecap="round" stroke-linejoin="round"/>
</svg>
