<svg width="24" height="24" viewBox="0 0 24 24" fill="none" xmlns="http://www.w3.org/2000/svg">
<path d="M1 19H2.54405C3.30819 19 4.03284 18.7041 4.52203 18.1923L5.125 17.5615C5.84057 16.8128 7.15943 16.8128 7.875 17.5615C8.59057 18.3101 9.90943 18.3101 10.625 17.5615C11.3406 16.8128 12.6594 16.8128 13.375 17.5615C14.0906 18.3101 15.4094 18.3101 16.125 17.5615C16.8406 16.8128 18.1594 16.8128 18.875 17.5615L19.478 18.1923C19.9672 18.7041 20.6918 19 21.4559 19H23" stroke="black" stroke-width="2"/>
<path d="M19.4142 5.58579C20.1953 6.36683 20.1953 7.63317 19.4142 8.41421C18.6332 9.19526 17.3668 9.19526 16.5858 8.41421C15.8047 7.63317 15.8047 6.36683 16.5858 5.58579C17.3668 4.80474 18.6332 4.80474 19.4142 5.58579Z" stroke="black" stroke-width="2" stroke-linecap="round" stroke-linejoin="round"/>
<path d="M4 7H10L17.5 13.5" stroke="black" stroke-width="2" stroke-linecap="round" stroke-linejoin="round"/>
<path d="M13 10L9.5 13.5" stroke="black" stroke-width="2" stroke-linecap="round" stroke-linejoin="round"/>
</svg>
